# xmcd
#
# Track frame offsets:
#        150
#        25692
#        45605
#        63982
#        81582
#        98567
#        115495
#        137642
#        159592
#        179535
#        197692
#        213902
#
# Disc length: 3137 seconds
#
# Revision: 0
# Processed by: cddbd v1.5.1PL2 Copyright (c) Steve Scherf et al.
# Submitted via: ExactAudioCopy v0.95a4
#
DISCID=a30c3f0c
DTITLE=SHOUJO-TAI - P-CAN
DYEAR=1900
DGENRE=
TTITLE0=BREAK AWAY
TTITLE1=MERRY CHRISTMAS IN THE KISS
TTITLE2=OK! IT'S GOOD
TTITLE3=DON'T WORRY
TTITLE4=SAKASAMA
TTITLE5=STEPPIN' CLUB
TTITLE6=TAKE THE FREE
TTITLE7=HURRY UP!
TTITLE8=FROM SANTA CLAUS VILLAGE
TTITLE9=NEXT CHANCE
TTITLE10=KISS THE PARADISE
TTITLE11=CAN'T TAKE MY EYES OFF OF YOU
EXTD=
EXTT0=
EXTT1=
EXTT2=
EXTT3=
EXTT4=
EXTT5=
EXTT6=
EXTT7=
EXTT8=
EXTT9=
EXTT10=
EXTT11=
PLAYORDER=
